<svg xmlns="http://www.w3.org/2000/svg" xmlns:xlink="http://www.w3.org/1999/xlink" width="148" height="140" viewBox="0 0 148 140"><defs><path id="a" d="M227.23 4308.38a10.18 10.18 0 0 1-4.82 4.81l-26.45 10.96c-1.88.77-4.92.78-6.81 0l-26.46-10.96a10.16 10.16 0 0 1-4.81-4.81l-10.96-26.45a10.17 10.17 0 0 1 0-6.8l10.96-26.45a10.2 10.2 0 0 1 4.81-4.81l26.46-10.96c1.88-.77 4.92-.78 6.81 0l26.45 10.96c1.88.78 4.03 2.93 4.82 4.81l10.96 26.45c.77 1.88.78 4.92 0 6.8zm4.01-61.36a14.5 14.5 0 0 0-7.17-7.15l-26.45-10.96a14.59 14.59 0 0 0-10.13 0l-26.45 10.96a14.5 14.5 0 0 0-7.17 7.15l-10.96 26.45a14.56 14.56 0 0 0 0 10.12l10.96 26.45a14.53 14.53 0 0 0 7.17 7.16l26.45 10.95c1.46.61 3.26.91 5.06.91 1.8 0 3.6-.3 5.07-.91l26.45-10.95a14.53 14.53 0 0 0 7.17-7.16l10.95-26.45a14.45 14.45 0 0 0 0-10.12z"/><path id="b" d="M183.55 4294.58l-.09.05c-.61.4-1.48.31-2-.2a1.59 1.59 0 0 1-.2-1.98c.02-.02.03-.06.04-.09l18.52-18.36 1.77 1.76c-7.67 7.63-17.64 18.42-17.87 18.66l-.17.16"/><path id="c" d="M209.73 4282.52a.47.47 0 0 1-.63 0l-13.97-13.86a.4.4 0 0 1-.13-.31.4.4 0 0 1 .13-.31l5.96-5.91c.08-.09.2-.13.31-.13.12 0 .23.04.32.13l9.78 9.69c.24.25.44.71.44 1.05v6.85c0 .34-.21.81-.43 1.03z"/><path id="d" d="M201.05 4294.58l.09.05c.61.4 1.47.31 1.99-.2.53-.53.62-1.36.21-1.98l-.05-.09-18.51-18.36-1.78 1.76c7.67 7.63 17.64 18.42 17.88 18.66l.17.16"/><path id="e" d="M175.21 4282.52c.16.16.46.16.62 0l13.98-13.86a.44.44 0 0 0 .13-.31.44.44 0 0 0-.13-.31l-5.96-5.91a.44.44 0 0 0-.32-.13.4.4 0 0 0-.31.13l-9.78 9.69c-.24.25-.44.71-.44 1.05v6.85c0 .34.21.81.43 1.03z"/></defs><g transform="translate(-117 -4227)"><use fill="#6483c1" xlink:href="#a"/></g><g transform="translate(-117 -4227)"><use fill="#6483c1" xlink:href="#b"/></g><g transform="translate(-117 -4227)"><use fill="#6483c1" xlink:href="#c"/></g><g transform="translate(-117 -4227)"><use fill="#6483c1" xlink:href="#d"/></g><g transform="translate(-117 -4227)"><use fill="#6483c1" xlink:href="#e"/></g><g transform="translate(-117 -4227)"><text fill="#6483c1" dominant-baseline="text-before-edge" font-family="Helvetica, Arial, sans-serif" font-size="16" transform="translate(116 4349)"/></g></svg>