<?xml version="1.0" encoding="UTF-8"?>
<svg width="178px" height="178px" viewBox="0 0 178 178" version="1.1" xmlns="http://www.w3.org/2000/svg" xmlns:xlink="http://www.w3.org/1999/xlink">
    <!-- Generator: Sketch 46.2 (44496) - http://www.bohemiancoding.com/sketch -->
    <title>Group</title>
    <desc>Created with Sketch.</desc>
    <defs>
        <path d="M82.8315,1.8675 C86.4,0.387 92.196,0.3915 95.751,1.8675 L146.547,22.905 C150.1155,24.381 154.2105,28.485 155.682,32.04 L176.7195,82.8315 C178.2,86.4 178.1955,92.196 176.7195,95.751 L155.682,146.547 C154.206,150.1155 150.102,154.2105 146.547,155.682 L95.751,176.7195 C92.187,178.2 86.391,178.1955 82.836,176.7195 L32.04,155.682 C28.4715,154.206 24.3765,150.102 22.905,146.547 L1.8675,95.751 C0.387,92.187 0.3915,86.391 1.8675,82.836 L22.905,32.04 C24.381,28.4715 28.485,24.3765 32.04,22.905 L82.8315,1.8675 L82.8315,1.8675 Z" id="path-1"></path>
    </defs>
    <g id="Page-1" stroke="none" stroke-width="1" fill="none" fill-rule="evenodd">
        <g id="Group">
            <g id="Clipped">
                <mask id="mask-2" fill="white">
                    <use xlink:href="#path-1"></use>
                </mask>
                <g id="a"></g>
                <g id="a-link" mask="url(#mask-2)" stroke="#6483C1" stroke-width="16.614">
                    <path d="M82.8315,1.8675 C86.4,0.387 92.196,0.3915 95.751,1.8675 L146.547,22.905 C150.1155,24.381 154.2105,28.485 155.682,32.04 L176.7195,82.8315 C178.2,86.4 178.1955,92.196 176.7195,95.751 L155.682,146.547 C154.206,150.1155 150.102,154.2105 146.547,155.682 L95.751,176.7195 C92.187,178.2 86.391,178.1955 82.836,176.7195 L32.04,155.682 C28.4715,154.206 24.3765,150.102 22.905,146.547 L1.8675,95.751 C0.387,92.187 0.3915,86.391 1.8675,82.836 L22.905,32.04 C24.381,28.4715 28.485,24.3765 32.04,22.905 L82.8315,1.8675 L82.8315,1.8675 Z" id="a"></path>
                </g>
            </g>
            <g transform="translate(49.500000, 54.000000)" id="Shape" fill="#6483C1">
                <path d="M22.815,66.798 C22.7532328,66.819238 22.6942952,66.8479511 22.6395,66.8835 C21.4277745,67.6451893 19.8533672,67.4857087 18.819,66.4965 C17.8061337,65.490399 17.6406385,63.9106725 18.423,62.7165 C18.4607955,62.660725 18.4910573,62.6002014 18.513,62.5365 L53.982,27.3555 L57.3795,30.7305 C42.6825,45.3555 23.5845,66.0285 23.1345,66.474 L22.8105,66.798 L22.815,66.798 Z M72.702,42.3495 C72.3642992,42.6666817 71.8382008,42.6666817 71.5005,42.3495 L44.7345,15.7995 C44.5748217,15.6421881 44.4849138,15.4274022 44.4849138,15.20325 C44.4849138,14.9790978 44.5748217,14.7643119 44.7345,14.607 L56.151,3.285 C56.3098575,3.12478604 56.5261303,3.03466386 56.75175,3.03466386 C56.9773697,3.03466386 57.1936425,3.12478604 57.3525,3.285 L76.086,21.87 C76.5972122,22.4313665 76.8950411,23.1544378 76.9275,23.913 L76.9275,36.945 C76.8905156,37.6921844 76.6036833,38.4053034 76.113,38.97 L72.702,42.3495 L72.702,42.3495 Z"></path>
                <path d="M56.619,66.798 C56.679209,66.819571 56.7366178,66.8482754 56.79,66.8835 C57.96,67.6485 59.616,67.482 60.6105,66.4965 C61.6233663,65.490399 61.7888615,63.9106725 61.0065,62.7165 C60.9687045,62.660725 60.9384427,62.6002014 60.9165,62.5365 L25.452,27.3555 L22.05,30.7305 C36.747,45.3555 55.845,66.0285 56.295,66.474 L56.619,66.798 L56.619,66.798 Z M6.7275,42.3495 C7.047,42.669 7.6095,42.669 7.929,42.3495 L34.695,15.7995 C34.8546783,15.6421881 34.9445862,15.4274022 34.9445862,15.20325 C34.9445862,14.9790978 34.8546783,14.7643119 34.695,14.607 L23.2785,3.285 C23.1196425,3.12478604 22.9033697,3.03466386 22.67775,3.03466386 C22.4521303,3.03466386 22.2358575,3.12478604 22.077,3.285 L3.3435,21.87 C2.83392435,22.4320091 2.53771644,23.1550112 2.5065,23.913 L2.5065,36.945 C2.5065,37.62 2.8935,38.547 3.3165,38.97 L6.7275,42.3495 L6.7275,42.3495 Z"></path>
            </g>
        </g>
    </g>
</svg>